#!OML:ASF F:\VICON\USERDATA\INSTALL\rory3\rory3.ASF
:FULLY-SPECIFIED
:DEGREES
3705
root 0.771917 15.5972 -1.95242 4.67655 0.88776 0.243866
lowerback 27.2156 1.03646 0.55087
upperback 8.8008 1.94042 6.06462
thorax -5.4286 0.882008 5.79459
lowerneck -18.0344 4.89907 1.19986
upperneck 4.71839 5.77811 5.07028
head 4.17056 3.20348 1.88393
rclavicle -3.18055e-015 -3.18055e-015
rhumerus 5.75608 32.258 -43.6957
rradius 112.248
rwrist -2.26647
rhand 11.2199 6.98592
rfingers 7.12502
rthumb 36.2824 -19.2607
lclavicle -3.18055e-015 -3.18055e-015
lhumerus 54.4558 -16.5885 61.1209
lradius 23.5157
lwrist -5.04321
lhand -14.0697 8.49973
lfingers 7.12502
lthumb 12.0619 38.1321
rfemur -26.0628 5.05583 12.3821
rtibia 38.491
rfoot -12.9774 -8.17465
rtoes -16.6813
lfemur -26.2629 -7.76319 -17.4087
ltibia 36.8164
lfoot -10.8051 4.51072
ltoes -12.532
3706
root 0.768892 15.5942 -1.94807 4.62157 0.994673 0.169028
lowerback 27.2656 1.03648 0.678966
upperback 8.80803 1.97923 6.11048
thorax -5.44622 0.90134 5.75946
lowerneck -18.0547 4.84599 1.07753
upperneck 4.63937 5.72056 5.26106
head 4.14212 3.18397 1.95622
rclavicle 1.11319e-014 -2.06736e-014
rhumerus 5.45499 32.1869 -43.6014
rradius 112.767
rwrist -2.4086
rhand 11.3805 6.85672
rfingers 7.12502
rthumb 36.4345 -19.3518
lclavicle 1.11319e-014 -2.06736e-014
lhumerus 53.9723 -17.447 60.1725
lradius 24.5696
lwrist -3.83411
lhand -14.2411 8.51603
lfingers 7.12502
lthumb 11.8967 38.158
rfemur -25.9944 5.05431 12.4898
rtibia 38.4965
rfoot -13.0826 -8.38277
rtoes -18.3239
lfemur -26.2396 -7.79902 -17.3225
ltibia 36.8719
lfoot -10.7693 4.46209
ltoes -12.7313
3707
root 0.762647 15.592 -1.94466 4.58182 1.05947 0.100366
lowerback 27.291 1.069 0.698385
upperback 8.83005 2.03158 6.18065
thorax -5.44071 0.925997 5.81083
lowerneck -18.053 4.82152 1.01006
upperneck 4.52492 5.69979 5.35782
head 4.10239 3.17689 1.99248
rclavicle -1.66979e-014 -4.77083e-014
rhumerus 5.17908 32.162 -43.4596
rradius 113.345
rwrist -2.4807
rhand 11.4133 6.74804
rfingers 7.12502
rthumb 36.4656 -19.4527
lclavicle -1.66979e-014 -4.77083e-014
lhumerus 53.3942 -18.1736 59.4298
lradius 25.7146
lwrist -2.85439
lhand -14.293 8.75687
lfingers 7.12502
lthumb 11.8466 38.4018
rfemur -25.9559 5.10929 12.5918
rtibia 38.5022
rfoot -13.0899 -8.5626
rtoes -19.1193
lfemur -26.2179 -7.78902 -17.2358
ltibia 36.9076
lfoot -10.7982 4.42283
ltoes -12.955
3708
root 0.756961 15.5923 -1.94127 4.60763 1.10391 0.138533
lowerback 27.2359 1.14376 0.643039
upperback 8.83642 2.11316 6.20804
thorax -5.41801 0.965216 5.84766
lowerneck -17.942 4.83379 1.22425
upperneck 4.35948 5.70216 5.0978
head 4.04645 3.16221 1.87207
rclavicle -1.19271e-014 -1.43125e-014
rhumerus 4.88257 32.0021 -43.3272
rradius 113.911
rwrist -2.60198
rhand 11.4882 6.79875
rfingers 7.12502
rthumb 36.5365 -19.3842
lclavicle -1.19271e-014 -1.43125e-014
lhumerus 52.8528 -18.9631 58.7081
lradius 26.8489
lwrist -2.02134
lhand -14.1143 9.07265
lfingers 7.12502
lthumb 12.0188 38.7076
rfemur -25.9597 5.10535 12.5669
rtibia 38.5015
rfoot -13.1088 -8.60135
rtoes -18.8929
lfemur -26.2705 -7.77601 -17.2585
ltibia 36.9642
lfoot -10.8676 4.37571
ltoes -12.7262
3709
root 0.751941 15.5923 -1.93909 4.72086 1.12704 0.148344
lowerback 27.1343 1.21456 0.665445
upperback 8.7848 2.20841 6.20215
thorax -5.43552 1.01295 5.79698
lowerneck -17.7691 4.79134 1.26547
upperneck 4.143 5.65053 5.11325
head 3.95474 3.13333 1.85665
rclavicle 6.36111e-015 -1.59028e-015
rhumerus 4.59347 31.8364 -43.1989
rradius 114.435
rwrist -2.81951
rhand 11.6215 6.90164
rfingers 7.12502
rthumb 36.6626 -19.2493
lclavicle 6.36111e-015 -1.59028e-015
lhumerus 52.2896 -19.8809 57.8589
lradius 28.038
lwrist -1.22423
lhand -13.9715 9.18068
lfingers 7.12502
lthumb 12.1566 38.8075
rfemur -26.0958 5.09019 12.5627
rtibia 38.5407
rfoot -13.1333 -8.64276
rtoes -18.8419
lfemur -26.4157 -7.80178 -17.2257
ltibia 37.0027
lfoot -10.9076 4.37722
ltoes -12.5795
3710
root 0.747274 15.5904 -1.93647 4.73391 1.13429 0.00283114
lowerback 27.1496 1.25909 0.814953
upperback 8.76838 2.30805 6.24186
thorax -5.46757 1.06199 5.72277
lowerneck -17.7884 4.694 0.950093
upperneck 4.02112 5.55481 5.59586
head 3.90183 3.10828 2.04529
rclavicle 1.98785e-014 1.27222e-014
rhumerus 4.3769 31.6902 -43.0115
rradius 114.957
rwrist -3.09484
rhand 11.7725 6.9055
rfingers 7.12502
rthumb 36.8055 -19.209
lclavicle 1.98785e-014 1.27222e-014
lhumerus 51.7032 -20.7398 56.9942
lradius 29.3217
lwrist -0.506408
lhand -14.1227 8.94627
lfingers 7.12502
lthumb 12.0108 38.5816
rfemur -26.1404 5.12999 12.7457
rtibia 38.6122
rfoot -13.1329 -8.69525
rtoes -19.0491
lfemur -26.4374 -7.74064 -17.0478
ltibia 37.0216
lfoot -10.9214 4.27641
ltoes -12.7168
3711
root 0.74503 15.5883 -1.93145 4.74603 1.26923 0.076494
lowerback 27.0698 1.26226 0.812865
upperback 8.80113 2.30704 6.2332
thorax -5.39215 1.06128 5.7139
lowerneck -17.9076 4.64778 0.793846
upperneck 3.94503 5.50475 5.87505
head 3.88704 3.09822 2.154
rclavicle 1.59028e-015 -1.59028e-014
rhumerus 4.26158 31.4237 -42.8261
rradius 115.516
rwrist -3.42261
rhand 12.147 6.85407
rfingers 7.12502
rthumb 37.1597 -19.1689
lclavicle 1.59028e-015 -1.59028e-014
lhumerus 51.2179 -21.5167 56.0954
lradius 30.598
lwrist 0.254084
lhand -14.4064 8.78742
lfingers 7.12502
lthumb 11.7372 38.4386
rfemur -26.1145 5.02156 12.6788
rtibia 38.6984
rfoot -13.2005 -8.63446
rtoes -18.1288
lfemur -26.4395 -7.85528 -17.1146
ltibia 37.0061
lfoot -10.8718 4.2346
ltoes -12.7762
3712
root 0.742651 15.5881 -1.92547 4.78785 1.54867 0.231279
lowerback 26.9297 1.21018 0.763173
upperback 8.82981 2.22169 6.21067
thorax -5.28488 1.02001 5.7435
lowerneck -17.879 4.6631 0.758745
upperneck 3.73008 5.53313 6.01877
head 3.81081 3.11644 2.20078
rclavicle -2.06736e-014 -2.8625e-014
rhumerus 4.18636 31.1172 -42.6161
rradius 116.142
rwrist -3.86051
rhand 12.579 6.67726
rfingers 7.12502
rthumb 37.5681 -19.2382
lclavicle -2.06736e-014 -2.8625e-014
lhumerus 50.6626 -22.2121 55.3224
lradius 31.8672
lwrist 0.899024
lhand -14.6017 8.85639
lfingers 7.12502
lthumb 11.5489 38.5182
rfemur -26.0425 4.79533 12.5245
rtibia 38.7746
rfoot -13.3164 -8.54026
rtoes -16.3368
lfemur -26.4817 -8.0863 -17.257
ltibia 36.9585
lfoot -10.788 4.19473
ltoes -12.7303
3713
root 0.740976 15.59 -1.9207 4.78842 1.74847 0.300816
lowerback 26.9146 1.18281 0.782651
upperback 8.82571 2.19245 6.20077
thorax -5.27828 1.00688 5.72999
lowerneck -17.8386 4.6509 0.715145
upperneck 3.54792 5.52838 6.13143
head 3.74456 3.11653 2.23698
rclavicle 3.18055e-015 1.59028e-015
rhumerus 4.1159 30.8894 -42.3352
rradius 116.742
rwrist -4.4671
rhand 12.6346 6.5153
rfingers 7.12502
rthumb 37.6206 -19.3861
lclavicle 3.18055e-015 1.59028e-015
lhumerus 50.061 -22.9418 54.6132
lradius 33.1589
lwrist 1.6149
lhand -14.6415 9.01736
lfingers 7.12502
lthumb 11.5105 38.6813
rfemur -25.9891 4.64215 12.4673
rtibia 38.8239
rfoot -13.4047 -8.60532
rtoes -16.3812
lfemur -26.4547 -8.25041 -17.3197
ltibia 36.8891
lfoot -10.7453 4.18645
ltoes -12.8827
3714
root 0.740406 15.591 -1.91864 4.77413 1.89942 0.363555
lowerback 26.9443 1.17555 0.823218
upperback 8.82461 2.1956 6.19422
thorax -5.2926 1.00942 5.698
lowerneck -17.8829 4.59558 0.617658
upperneck 3.45232 5.4707 6.25225
head 3.71822 3.09274 2.28442
rclavicle -7.15625e-015 -2.38542e-014
rhumerus 4.11003 30.6387 -42.0268
rradius 117.243
rwrist -4.96815
rhand 12.4307 6.44889
rfingers 7.12502
rthumb 37.4279 -19.5037
lclavicle -7.15625e-015 -2.38542e-014
lhumerus 49.44 -23.5471 54.1876
lradius 34.4149
lwrist 2.21716
lhand -14.4856 9.11802
lfingers 7.12502
lthumb 11.6609 38.7735
rfemur -25.9838 4.47221 12.4205
rtibia 38.8413
rfoot -13.4487 -8.74818
rtoes -17.9255
lfemur -26.4218 -8.39105 -17.3842
ltibia 36.8404
lfoot -10.7192 4.17894
ltoes -12.978
3715
root 0.738669 15.5914 -1.91645 4.78269 2.04385 0.324964
lowerback 26.9147 1.14136 0.947692
upperback 8.864 2.18205 6.20845
thorax -5.22932 1.00287 5.64517
lowerneck -18.0268 4.56714 0.543727
upperneck 3.36962 5.44201 6.35169
head 3.71128 3.08411 2.32709
rclavicle -3.18055e-015 -9.54166e-015
rhumerus 4.27486 30.2757 -41.67
rradius 117.748
rwrist -5.45293
rhand 12.6963 6.46106
rfingers 7.12502
rthumb 37.679 -19.4248
lclavicle -3.18055e-015 -9.54166e-015
lhumerus 48.7983 -24.0493 53.7447
lradius 35.7756
lwrist 2.96705
lhand -14.4055 9.31285
lfingers 7.12502
lthumb 11.7381 38.964
rfemur -25.9686 4.35366 12.4818
rtibia 38.8307
rfoot -13.4598 -8.82218
rtoes -18.6852
lfemur -26.4529 -8.50131 -17.3249
ltibia 36.8297
lfoot -10.7008 4.1363
ltoes -12.9282
